<svg xmlns="http://www.w3.org/2000/svg" class="css-1j8o68f" width="106" height="117.33" viewBox="-12.5 0 106 88.889">
<g transform="matrix(4.4444 0 0 4.4444 -13.333 -8.8889)" fill="#5B49FF" featurekey="symbolFeature-0">
<path xmlns="http://www.w3.org/2000/svg" d="M15,2c-1.6,0-3.1,0.7-4.2,1.7c0.8,0.2,1.5,0.5,2.1,0.9C13.5,4.2,14.2,4,15,4c2.2,0,4,1.8,4,4v5c0,2.2-1.8,4-4,4s-4-1.8-4-4  V9.5c-0.5-0.6-1.2-1-2-1V13c0,3.3,2.7,6,6,6s6-2.7,6-6V8C21,4.7,18.3,2,15,2z"/>
<path xmlns="http://www.w3.org/2000/svg" d="m9 22c1.6 0 3.1-0.7 4.2-1.7-0.8-0.2-1.5-0.5-2.1-0.9-0.6 0.4-1.3 0.6-2.1 0.6-2.2 0-4-1.8-4-4v-5c0-2.2 1.8-4 4-4s4 1.8 4 4v3.5c0.5 0.6 1.2 1 2 1v-4.5c0-3.3-2.7-6-6-6s-6 2.7-6 6v5c0 3.3 2.7 6 6 6z"/>
</g>
</svg>