<?xml version="1.0" encoding="UTF-8"?>
<svg class="css-1j8o68f" width="396" height="117.33" viewBox="0 0 300 88.889" xmlns="http://www.w3.org/2000/svg">
<g transform="matrix(4.4444 0 0 4.4444 -13.333 -8.8889)" fill="#111" featurekey="symbolFeature-0">
<path d="M15,2c-1.6,0-3.1,0.7-4.2,1.7c0.8,0.2,1.5,0.5,2.1,0.9C13.5,4.2,14.2,4,15,4c2.2,0,4,1.8,4,4v5c0,2.2-1.8,4-4,4s-4-1.8-4-4  V9.5c-0.5-0.6-1.2-1-2-1V13c0,3.3,2.7,6,6,6s6-2.7,6-6V8C21,4.7,18.3,2,15,2z" xmlns="http://www.w3.org/2000/svg"/>
<path d="m9 22c1.6 0 3.1-0.7 4.2-1.7-0.8-0.2-1.5-0.5-2.1-0.9-0.6 0.4-1.3 0.6-2.1 0.6-2.2 0-4-1.8-4-4v-5c0-2.2 1.8-4 4-4s4 1.8 4 4v3.5c0.5 0.6 1.2 1 2 1v-4.5c0-3.3-2.7-6-6-6s-6 2.7-6 6v5c0 3.3 2.7 6 6 6z" xmlns="http://www.w3.org/2000/svg"/>
</g>
<g transform="matrix(3.0697 0 0 3.0697 95.088 -34.837)" fill="#111" featurekey="nameFeature-0">
<path d="m12.059 35.608c1.2128 0 2.1961 0.98332 2.1961 2.1961s-0.98328 2.196-2.196 2.196c-5.7668 0-10.459-4.692-10.459-10.459v-15.345c0-1.2128 0.98328-2.196 2.196-2.196s2.196 0.98328 2.196 2.196v15.345c0 3.3452 2.7215 6.0668 6.0668 6.0668zm8.25-16.196c1.2128 0 2.196 0.98328 2.196 2.196v16.196c0 1.2128-0.98328 2.196-2.196 2.196s-2.196-0.98328-2.196-2.196v-16.196c0-1.2128 0.98328-2.196 2.196-2.196zm-2.0286-4.376c-0.054884-0.13176-0.096056-0.2718-0.12352-0.4118-0.030195-0.14-0.043908-0.28551-0.043908-0.42824s0.013711-0.28824 0.043908-0.42824c0.027461-0.14 0.068632-0.28 0.12352-0.41176s0.12352-0.26078 0.20312-0.37883c0.079608-0.12078 0.1702-0.23332 0.27176-0.33488s0.2141-0.19215 0.33488-0.27176c0.11805-0.079608 0.24707-0.14824 0.37883-0.20312s0.27176-0.096056 0.41176-0.12352c0.71372-0.14551 1.4714 0.090588 1.982 0.59844 0.098828 0.10156 0.19215 0.2141 0.27176 0.33488 0.079608 0.11805 0.14824 0.24707 0.20312 0.37883s0.096056 0.27176 0.12352 0.41176c0.030195 0.14 0.043908 0.28551 0.043908 0.42824s-0.013711 0.28824-0.043908 0.42824c-0.027461 0.14-0.068632 0.28-0.12352 0.41176s-0.12352 0.26078-0.20312 0.37883c-0.079608 0.12078-0.17293 0.23332-0.27176 0.33488-0.10156 0.10156-0.2141 0.19215-0.33488 0.27176-0.11805 0.079608-0.24707 0.14824-0.37883 0.20312s-0.27176 0.096056-0.41176 0.12352c-0.14 0.030195-0.28551 0.043908-0.42824 0.043908s-0.28824-0.013711-0.42824-0.043908c-0.14-0.027461-0.28-0.068632-0.41176-0.12352s-0.26078-0.12352-0.37883-0.20312c-0.12078-0.079608-0.23332-0.1702-0.33488-0.27176s-0.19215-0.2141-0.27176-0.33488c-0.079608-0.11805-0.14824-0.24707-0.20312-0.37883zm16.086 4.376c4.4004 0 7.98 3.5802 7.98 7.9804v10.412c0 1.2128-0.98328 2.196-2.196 2.196s-2.196-0.98328-2.196-2.196v-10.412c0-1.9784-1.6094-3.5881-3.5881-3.5881s-3.5881 1.6094-3.5881 3.5881v10.412c0 1.2128-0.98328 2.196-2.196 2.196s-2.196-0.98328-2.196-2.196v-16.196c0-1.2128 0.98328-2.196 2.196-2.196 0.78592 0 1.4733 0.4142 1.8615 1.0349 1.1592-0.65744 2.4975-1.0349 3.9227-1.0349zm25.225 10.321 6.518 6.518c0.85784 0.85756 0.85784 2.248 0 3.1056-0.4288 0.4288-0.99072 0.64316-1.5529 0.64316s-1.1241-0.21438-1.5529-0.64316l-6.5176-6.5176-6.5176 6.5176c-0.42028 0.42-0.98192 0.64316-1.5534 0.64316-0.28301 0-0.56824-0.054608-0.84-0.16715-0.82052-0.33984-1.3555-1.1406-1.3555-2.0289v-23.606c0-1.2128 0.98328-2.196 2.196-2.196s2.196 0.98328 2.196 2.196v18.305l12.392-12.392c0.85756-0.85756 2.248-0.85756 3.1056 0 0.85784 0.85756 0.85784 2.248 0 3.1056z"/>
</g>
</svg>
